<?xml version="1.0" standalone="no"?>
<!DOCTYPE svg PUBLIC "-//W3C//DTD SVG 20010904//EN"
 "http://www.w3.org/TR/2001/REC-SVG-20010904/DTD/svg10.dtd">
<svg version="1.0" xmlns="http://www.w3.org/2000/svg"
 width="1320.000000pt" height="1320.000000pt" viewBox="0 0 1320.000000 1320.000000"
 preserveAspectRatio="xMidYMid meet">

<g transform="translate(0.000000,1320.000000) scale(0.100000,-0.100000)"
fill="#000000" stroke="none">
<path d="M7935 11450 c-1265 -4 -1720 -9 -1750 -17 -62 -19 -138 -58 -160 -84
-11 -13 -33 -34 -48 -45 -34 -27 -70 -101 -91 -185 -14 -56 -16 -146 -16 -652
0 -323 -2 -587 -5 -587 -3 0 -13 8 -23 18 -10 9 -43 39 -73 66 -102 92 -231
211 -288 266 -32 30 -84 78 -116 105 -32 28 -82 73 -111 100 -29 28 -87 82
-129 120 -43 39 -92 84 -110 100 -18 17 -63 57 -100 90 -36 33 -85 77 -108 99
-23 21 -61 47 -85 57 -81 35 -199 18 -262 -37 -97 -84 -182 -159 -220 -194
-25 -22 -61 -53 -80 -68 -19 -15 -53 -43 -75 -63 -61 -55 -154 -138 -225 -199
-129 -111 -327 -284 -405 -355 -76 -68 -121 -105 -129 -105 -3 0 -6 152 -6
337 0 386 4 369 -93 431 -61 38 -28 36 -462 17 -340 -14 -384 -21 -431 -69
-52 -52 -52 -47 -58 -877 -4 -576 -9 -775 -18 -780 -14 -9 -95 -77 -122 -104
-11 -11 -36 -33 -56 -48 -19 -16 -64 -54 -99 -85 -65 -58 -161 -142 -241 -212
-73 -63 -171 -149 -232 -204 -31 -28 -74 -64 -94 -81 -20 -16 -63 -55 -95 -86
-49 -47 -59 -62 -59 -91 0 -59 44 -108 96 -108 33 0 102 47 169 113 17 16 45
42 64 56 19 14 44 35 56 46 12 11 50 45 85 75 35 30 73 64 85 75 12 11 29 26
38 33 14 12 16 -167 17 -2274 l1 -2288 22 -24 c32 -35 64 -45 103 -32 70 23
64 -197 64 2429 l0 2369 49 41 49 41 2428 0 2427 0 71 -67 c95 -89 146 -135
334 -298 104 -90 161 -141 199 -176 68 -64 131 -77 179 -36 23 20 27 32 27 72
0 46 -2 50 -64 109 -35 33 -93 86 -129 116 -35 30 -84 74 -109 97 -62 56 -164
146 -241 213 -34 30 -84 74 -109 97 -25 23 -77 70 -116 104 -166 147 -323 288
-356 319 -15 14 -53 48 -85 75 -32 28 -70 62 -86 77 -16 15 -50 45 -76 65 -25
21 -67 58 -92 83 -26 25 -72 68 -104 95 -31 28 -86 77 -121 110 l-64 60 6 703
6 704 26 39 c30 44 97 96 140 109 38 10 4896 16 4936 5 40 -11 126 -91 148
-139 16 -36 17 -234 17 -3697 0 -3370 -1 -3662 -16 -3701 -9 -24 -39 -66 -67
-95 -65 -68 -92 -73 -351 -73 -314 0 -1023 13 -1006 18 15 5 78 51 114 84 11
10 24 18 29 18 6 0 28 15 51 33 23 19 52 40 66 47 14 7 71 48 127 91 56 44
106 79 110 79 5 0 24 19 42 43 29 37 32 48 28 89 -4 49 -28 92 -99 179 -21 26
-38 51 -38 56 0 6 -20 32 -45 59 -24 27 -45 53 -45 58 0 7 -118 171 -190 266
-11 14 -36 50 -56 80 -21 30 -40 57 -43 60 -13 10 -81 110 -81 119 0 5 -7 11
-15 15 -8 3 -15 12 -15 20 0 8 -8 21 -18 28 -10 7 -32 36 -49 63 -37 58 -91
134 -148 208 -58 76 -105 144 -105 154 0 4 -17 27 -38 50 -20 23 -48 60 -62
83 -14 23 -36 55 -50 70 -36 41 -45 53 -52 70 -7 17 -125 171 -162 211 -43 47
-123 47 -184 2 -18 -14 -69 -49 -113 -79 -44 -29 -86 -59 -93 -66 -7 -7 -32
-24 -55 -38 -23 -14 -61 -42 -84 -62 -23 -21 -45 -38 -50 -38 -11 0 -119 -75
-151 -105 -15 -14 -29 -25 -32 -25 -7 0 -86 -53 -110 -75 -72 -65 -84 -78 -85
-98 -3 -49 4 -74 26 -106 19 -28 21 -37 12 -52 -7 -11 -16 -19 -21 -19 -4 0
-23 -12 -41 -27 -50 -43 -66 -55 -129 -98 -33 -22 -73 -53 -90 -68 -17 -16
-46 -34 -63 -42 -18 -8 -45 -25 -60 -39 -40 -38 -130 -82 -194 -96 -88 -20
-239 -9 -334 24 -89 31 -201 73 -227 87 -10 5 -49 14 -87 20 -39 7 -68 15 -66
19 3 5 29 14 57 20 29 7 64 21 78 30 14 9 42 23 62 29 21 7 40 17 43 21 3 5
25 15 48 21 23 6 44 14 47 18 3 4 47 35 98 69 150 100 265 204 391 353 60 71
59 70 127 173 59 90 125 230 131 275 9 78 -58 141 -149 141 -73 0 -91 -13
-132 -98 -20 -43 -50 -99 -66 -127 -17 -27 -35 -62 -41 -77 -6 -16 -15 -28
-20 -28 -5 0 -9 -6 -9 -14 0 -8 -8 -21 -18 -28 -10 -7 -27 -26 -38 -43 -58
-91 -210 -233 -314 -293 -25 -14 -47 -29 -50 -32 -3 -4 -21 -15 -40 -26 -19
-10 -37 -22 -40 -25 -12 -14 -231 -92 -295 -106 -38 -8 -83 -18 -100 -23 -50
-14 -235 -20 -325 -11 -141 15 -230 36 -350 83 -150 59 -139 54 -185 83 -22
14 -56 33 -75 42 -19 10 -42 25 -51 33 -9 8 -29 24 -44 35 -61 45 -209 195
-265 268 -71 94 -76 114 -22 87 34 -17 69 -28 214 -62 61 -15 73 -4 81 73 4
33 11 68 17 79 14 26 13 75 -3 88 -6 6 -26 13 -42 17 -17 3 -50 14 -75 24 -47
19 -139 44 -250 67 -36 8 -74 19 -85 24 -18 9 -139 45 -190 57 -13 3 -29 -6
-48 -24 -29 -31 -50 -108 -85 -305 -9 -53 -20 -100 -25 -104 -15 -15 -7 -110
13 -149 11 -22 20 -45 20 -52 0 -7 4 -13 8 -13 5 0 28 -34 51 -75 37 -65 47
-75 71 -75 15 0 33 6 39 14 11 13 28 81 38 149 5 35 17 49 25 28 11 -32 205
-234 304 -317 27 -22 72 -54 99 -69 28 -16 72 -44 99 -63 26 -18 65 -40 85
-47 20 -7 65 -28 101 -45 91 -45 193 -77 294 -92 47 -6 86 -15 86 -18 0 -4
-21 -16 -47 -27 -47 -19 -60 -20 -463 -13 -404 7 -433 9 -505 40 -11 5 -39 15
-63 21 -23 7 -47 18 -53 26 -6 7 -17 13 -24 13 -7 0 -23 10 -37 23 -14 13 -56
44 -94 69 -64 43 -184 126 -193 134 -2 2 6 18 18 37 14 23 21 51 21 85 0 44
-4 52 -31 73 -18 13 -50 41 -73 62 -22 21 -54 45 -71 54 -16 9 -38 24 -47 34
-10 9 -34 30 -55 46 -21 15 -47 36 -57 45 -11 10 -24 18 -28 18 -5 0 -27 17
-51 39 -23 21 -60 51 -83 67 -48 34 -195 148 -218 170 -73 69 -144 82 -191 35
-44 -43 -125 -151 -125 -166 0 -3 -16 -21 -35 -41 -19 -19 -35 -37 -35 -40 0
-8 -58 -90 -81 -117 -11 -12 -58 -74 -104 -137 -46 -63 -96 -131 -113 -150
-16 -19 -42 -55 -57 -80 -16 -25 -45 -65 -67 -89 -21 -24 -38 -48 -38 -52 0
-5 -7 -17 -16 -26 -9 -10 -44 -58 -79 -108 -35 -49 -72 -99 -83 -110 -11 -11
-34 -45 -52 -75 -19 -30 -41 -63 -51 -72 -9 -9 -31 -39 -50 -67 -18 -28 -36
-51 -40 -51 -4 0 -11 -10 -15 -22 -4 -13 -15 -30 -24 -38 -9 -8 -33 -40 -52
-70 -20 -30 -52 -74 -71 -98 -20 -23 -38 -51 -42 -61 -3 -11 -12 -22 -20 -25
-8 -3 -15 -12 -15 -20 0 -8 -6 -19 -14 -23 -25 -15 -66 -103 -66 -142 0 -30 8
-48 41 -85 22 -25 46 -46 52 -46 7 0 18 -9 25 -20 7 -11 18 -20 25 -20 6 0 30
-16 52 -36 22 -20 65 -54 95 -75 78 -56 206 -156 277 -216 14 -13 29 -23 33
-23 4 0 33 -23 66 -50 79 -67 76 -66 112 -84 38 -20 75 -20 110 -2 26 13 96
85 134 138 9 12 28 37 41 53 13 17 29 40 36 53 19 35 7 43 206 -133 49 -44 96
-84 103 -90 7 -5 26 -22 42 -37 16 -15 37 -31 46 -36 15 -8 11 -17 -30 -73
-66 -92 -88 -143 -93 -225 -4 -55 -1 -83 13 -120 19 -50 67 -127 100 -161 50
-52 155 -103 211 -103 17 0 21 -9 26 -57 3 -39 16 -78 38 -118 36 -65 115
-149 151 -161 13 -3 25 -10 28 -15 8 -12 150 -31 181 -24 26 6 27 4 34 -52 7
-64 33 -131 61 -160 11 -10 32 -35 47 -56 17 -22 51 -48 85 -64 48 -23 72 -28
152 -30 l95 -2 15 -48 c8 -26 24 -61 34 -78 29 -44 104 -110 161 -142 45 -25
59 -28 150 -28 77 0 109 4 139 19 61 29 179 113 199 141 22 31 48 32 73 4 10
-12 39 -35 64 -52 25 -17 64 -49 87 -71 169 -165 273 -208 445 -184 118 16
199 77 268 202 l35 63 34 -18 c83 -44 254 -46 347 -3 60 28 165 142 193 212
l25 59 45 -15 c84 -26 272 -19 303 11 7 7 29 23 50 35 30 19 73 61 119 120 6
7 21 42 33 78 l23 64 107 3 c60 1 110 7 114 13 4 5 21 16 37 22 51 21 141 114
171 177 21 47 28 77 32 153 l5 95 70 66 c39 36 87 82 108 101 64 62 176 160
213 188 19 15 38 34 41 42 3 8 25 29 48 47 23 17 60 49 83 70 22 21 57 52 76
68 34 29 170 151 252 226 22 21 44 35 50 33 6 -2 28 -30 49 -62 21 -31 62 -84
92 -117 l54 -60 823 0 c807 0 824 0 853 20 17 11 47 29 68 40 52 26 135 113
170 178 60 110 57 -144 57 3812 0 2373 -4 3651 -10 3692 -14 83 -57 167 -121
231 -54 55 -82 73 -164 106 -48 19 -78 20 -830 21 -429 0 -1549 -2 -2490 -5z
m-3266 -762 c17 -18 31 -36 31 -40 0 -4 12 -14 28 -22 15 -8 54 -41 87 -73 52
-50 111 -105 345 -320 25 -22 74 -68 110 -101 36 -32 97 -89 135 -125 39 -36
88 -80 110 -97 22 -17 52 -44 66 -58 15 -15 66 -63 114 -107 49 -44 112 -102
141 -130 28 -27 76 -72 105 -98 30 -27 77 -70 104 -96 28 -26 64 -56 80 -66
17 -10 46 -33 65 -51 42 -40 61 -57 171 -154 46 -41 95 -86 110 -100 14 -14
58 -54 99 -90 106 -94 190 -173 190 -180 0 -3 -983 -6 -2185 -6 -1845 -1
-2185 1 -2185 12 0 8 4 14 10 14 5 0 25 15 43 33 19 17 49 46 68 62 19 17 66
57 104 90 38 33 78 69 90 80 25 24 93 84 166 145 29 25 81 70 114 100 83 74
120 106 185 160 30 25 66 56 80 70 14 14 50 46 80 72 30 26 73 64 95 84 22 19
65 56 95 82 30 25 78 67 105 92 28 25 65 56 84 70 19 14 52 44 75 67 23 24 45
43 50 43 5 0 35 24 66 53 31 28 78 70 104 92 26 22 58 49 71 60 12 11 46 40
75 65 28 25 77 68 109 95 114 100 195 170 219 190 13 11 47 41 76 67 28 26 59
48 68 48 9 0 31 -15 47 -32z m-1596 -1036 c-21 -19 -56 -48 -77 -65 -62 -50
-258 -222 -336 -294 -31 -29 -59 -53 -63 -53 -3 0 -27 -20 -53 -45 -25 -25
-47 -45 -48 -45 -1 0 -1 291 -1 648 l1 647 304 10 305 10 3 -390 3 -390 -38
-33z m963 -3987 c27 -25 52 -45 55 -45 4 0 45 -30 93 -67 47 -38 116 -90 152
-118 59 -44 224 -172 232 -180 4 -3 -94 -141 -115 -163 -7 -7 -13 -17 -13 -22
0 -5 -11 -19 -24 -32 -13 -13 -41 -48 -61 -78 -21 -30 -49 -68 -62 -85 -14
-16 -45 -57 -70 -90 -25 -33 -54 -71 -64 -85 -11 -14 -51 -68 -89 -120 -38
-52 -82 -111 -98 -130 -15 -19 -39 -53 -52 -75 -13 -22 -29 -47 -37 -55 -30
-35 -62 -78 -96 -130 -19 -30 -51 -73 -71 -95 -20 -22 -36 -44 -36 -49 0 -4
-17 -29 -38 -55 -21 -25 -60 -77 -86 -116 -27 -38 -53 -75 -60 -80 -14 -12
-76 -103 -76 -111 0 -3 -14 -19 -31 -35 l-31 -29 -28 23 c-15 12 -37 29 -49
37 -13 8 -35 27 -51 42 -16 15 -48 39 -71 55 -23 15 -57 41 -76 57 -18 16 -48
39 -67 50 -32 19 -164 116 -228 168 l-27 21 32 39 c18 22 38 50 45 64 7 13 17
24 23 24 5 0 9 5 9 11 0 10 32 57 80 115 14 17 32 41 40 54 23 35 82 113 97
128 7 7 13 17 13 22 0 4 16 25 35 46 20 22 43 53 52 69 9 17 43 66 77 110 34
44 70 94 80 110 11 17 32 46 49 65 25 29 71 93 175 238 34 47 87 117 100 130
6 7 12 17 12 21 0 4 16 25 36 47 19 21 41 51 49 65 7 14 42 64 77 112 35 47
76 104 91 126 16 23 34 41 41 41 8 0 36 -20 62 -45z m5061 -9 c9 -16 21 -35
27 -42 32 -34 181 -236 198 -268 6 -12 27 -41 48 -66 20 -25 50 -65 66 -90 16
-25 31 -47 34 -50 13 -11 112 -152 117 -167 3 -8 19 -29 35 -46 16 -18 36 -44
43 -58 13 -24 82 -121 190 -265 25 -34 45 -65 45 -70 0 -5 23 -36 50 -69 28
-33 50 -63 50 -68 0 -4 4 -13 10 -20 42 -52 69 -87 111 -145 26 -37 52 -71 56
-77 19 -24 63 -95 63 -102 0 -5 -17 -19 -38 -32 -20 -14 -58 -42 -84 -63 -26
-21 -50 -38 -53 -38 -4 0 -21 -11 -39 -25 -17 -14 -36 -29 -42 -34 -5 -4 -20
-13 -31 -20 -12 -6 -27 -17 -35 -23 -21 -21 -86 -68 -92 -68 -4 0 -31 -20 -62
-45 -30 -25 -58 -45 -63 -45 -4 0 -18 -9 -31 -20 -13 -11 -28 -19 -34 -17 -12
4 -78 86 -111 136 -49 76 -140 207 -154 223 -29 32 -39 45 -56 77 -9 18 -27
45 -40 59 -13 15 -44 59 -70 97 -26 39 -65 93 -86 121 -22 28 -39 54 -39 58 0
3 -15 23 -32 42 -18 20 -37 43 -42 52 -14 28 -60 95 -76 112 -18 19 -40 50
-82 115 -18 28 -36 52 -41 54 -4 1 -20 22 -34 45 -26 42 -83 121 -163 226 -25
33 -56 75 -70 95 -14 20 -41 58 -61 83 -38 51 -37 56 12 82 13 7 27 17 30 22
6 9 65 51 219 155 47 32 90 63 95 69 6 6 42 33 80 59 39 27 85 61 104 76 39
32 51 28 78 -25z m-4415 -679 c13 -12 49 -39 79 -59 30 -20 90 -62 134 -92 44
-31 85 -56 92 -56 6 0 18 -6 25 -12 32 -31 132 -66 238 -85 113 -19 595 -30
641 -14 41 14 49 -7 13 -33 -16 -11 -90 -77 -164 -146 -74 -69 -141 -131 -150
-138 -8 -7 -38 -34 -65 -60 -28 -26 -62 -56 -75 -67 -41 -33 -114 -126 -140
-178 -19 -38 -24 -64 -23 -125 0 -79 1 -83 66 -192 21 -35 72 -90 85 -90 4 0
19 -11 33 -24 35 -32 97 -48 189 -48 78 -1 190 18 190 31 0 4 23 22 50 40 28
18 71 52 98 75 26 24 60 54 76 67 16 13 48 41 70 63 22 21 59 51 81 67 22 15
58 46 79 68 22 23 43 41 47 41 4 0 20 11 35 25 32 30 53 31 85 8 13 -10 33
-23 44 -29 62 -33 91 -51 113 -71 14 -13 29 -23 33 -23 12 0 108 -64 160 -107
15 -13 29 -23 32 -23 8 0 60 -36 124 -85 28 -22 84 -62 123 -90 39 -27 79 -57
88 -66 9 -9 31 -23 47 -32 17 -8 43 -29 59 -46 17 -17 34 -31 39 -31 4 0 34
-21 65 -46 31 -26 63 -49 71 -52 8 -3 22 -13 32 -21 26 -24 62 -54 93 -76 48
-34 152 -112 241 -180 33 -25 89 -66 125 -90 128 -87 234 -175 262 -217 63
-96 6 -238 -104 -258 -77 -15 -170 18 -228 81 -8 9 -43 37 -77 63 -34 25 -68
52 -75 59 -7 7 -35 28 -63 47 -27 18 -52 37 -55 40 -3 3 -68 54 -145 113 -77
58 -158 121 -179 139 -21 18 -53 41 -70 52 -27 16 -58 41 -128 101 -10 8 -21
15 -24 15 -6 0 -52 37 -100 81 -12 10 -27 19 -32 19 -6 0 -15 6 -19 14 -4 7
-19 19 -33 26 -13 7 -33 23 -43 36 -9 13 -42 35 -71 49 -47 23 -59 25 -93 16
-26 -7 -44 -20 -57 -42 -37 -62 -4 -112 139 -209 28 -18 61 -44 75 -56 27 -25
131 -104 187 -142 18 -12 33 -27 33 -32 0 -6 5 -10 11 -10 6 0 38 -21 70 -47
32 -27 87 -69 121 -96 35 -26 87 -66 117 -90 44 -34 156 -120 206 -159 6 -4
23 -19 39 -33 16 -14 32 -25 36 -25 4 0 30 -22 57 -48 56 -54 68 -92 52 -162
-20 -87 -89 -140 -182 -139 -58 0 -109 25 -195 94 -27 22 -59 47 -71 55 -13 8
-35 26 -51 40 -15 14 -44 36 -65 50 -20 14 -46 34 -58 46 -12 12 -62 52 -112
89 -49 37 -94 73 -100 80 -5 6 -21 18 -34 25 -14 7 -42 29 -64 49 -21 20 -46
40 -54 45 -13 7 -138 103 -242 184 -165 131 -188 140 -248 100 -65 -45 -56
-119 20 -175 29 -20 59 -43 67 -50 67 -56 156 -126 213 -166 37 -27 67 -52 67
-58 0 -5 5 -9 10 -9 10 0 136 -92 155 -114 6 -6 29 -23 52 -39 24 -15 55 -38
70 -52 16 -13 74 -60 131 -105 59 -46 107 -92 113 -108 16 -39 4 -140 -19
-171 -10 -14 -40 -39 -67 -55 -89 -55 -161 -37 -297 75 -32 26 -64 53 -73 61
-9 7 -24 20 -34 28 -10 8 -25 20 -33 25 -24 16 -119 91 -166 132 -23 21 -51
42 -61 48 -10 5 -38 27 -62 48 -24 20 -77 62 -118 92 -40 31 -104 89 -142 129
-59 63 -80 79 -137 100 -37 14 -84 26 -105 26 -42 0 -41 -2 -57 98 -7 40 -18
79 -26 87 -8 7 -14 18 -14 23 0 19 -96 110 -145 138 -41 24 -65 30 -135 34
l-85 5 -10 40 c-31 124 -100 211 -214 272 -64 34 -68 35 -153 30 -66 -3 -93
-9 -116 -25 -30 -22 -42 -20 -42 7 0 14 -12 33 -74 127 -25 37 -97 94 -152
120 -29 14 -62 19 -130 19 -80 0 -97 -3 -147 -29 -31 -15 -57 -32 -57 -37 0
-4 -9 -10 -20 -14 -21 -7 -90 -72 -90 -86 0 -17 -22 -9 -64 24 -67 52 -74 58
-159 140 -45 43 -110 99 -144 124 -35 25 -63 50 -63 55 0 6 19 35 43 63 23 29
49 63 57 75 8 13 45 62 83 111 37 48 67 92 67 96 0 4 13 22 28 38 15 17 38 47
51 68 13 21 28 43 35 50 22 23 76 95 76 101 0 3 8 15 18 25 9 10 40 51 67 91
28 39 64 90 82 113 18 23 49 67 70 97 21 30 45 62 53 71 8 10 26 33 40 53 14
20 33 46 43 58 9 11 17 27 17 34 0 12 15 22 36 23 6 1 22 -9 36 -22z m3736
-12 c12 -19 22 -39 22 -44 0 -5 6 -11 13 -14 7 -3 26 -24 42 -48 16 -24 55
-78 85 -119 31 -41 63 -86 70 -100 7 -14 30 -46 51 -71 22 -26 39 -50 39 -54
0 -4 11 -21 25 -39 40 -48 53 -66 105 -141 26 -38 56 -79 67 -90 19 -21 26
-32 57 -85 10 -19 36 -56 57 -84 21 -28 47 -62 57 -76 10 -14 25 -36 32 -50 7
-14 16 -27 19 -30 16 -13 62 -81 71 -104 5 -14 14 -26 20 -26 20 0 9 -23 -32
-64 -24 -23 -53 -49 -65 -57 -21 -15 -188 -166 -323 -293 -36 -33 -105 -97
-155 -141 -123 -110 -187 -170 -256 -237 -33 -32 -65 -58 -72 -58 -13 0 -111
70 -139 100 -10 10 -43 36 -75 57 -32 20 -59 41 -61 45 -2 4 -40 33 -85 63
-45 31 -107 76 -137 100 -30 24 -59 44 -64 45 -6 0 -22 12 -37 26 -15 14 -47
40 -72 57 -61 43 -127 92 -201 149 -79 62 -72 57 -138 101 -31 21 -59 45 -62
53 -3 8 -12 14 -19 14 -8 0 -43 22 -78 50 -85 66 -76 60 -144 105 -33 21 -64
44 -70 50 -5 6 -32 25 -60 43 -27 17 -57 37 -65 44 -19 17 -74 54 -108 73 -15
9 -39 23 -53 33 -14 9 -41 27 -60 39 -19 12 -39 26 -44 31 -15 13 -98 32 -139
32 -90 0 -127 -17 -241 -112 -60 -50 -112 -94 -115 -98 -3 -3 -50 -44 -105
-90 -55 -46 -116 -99 -135 -118 -53 -53 -131 -85 -191 -80 -95 9 -159 76 -159
167 0 57 14 79 88 141 36 30 83 73 106 95 23 22 59 54 81 70 22 17 49 41 60
55 21 27 22 27 116 110 34 30 106 98 159 150 54 52 113 107 131 122 53 44 163
96 226 107 124 23 355 8 464 -30 30 -10 62 -19 70 -19 8 0 26 -6 41 -14 15 -8
42 -17 60 -21 18 -4 71 -25 117 -47 63 -31 111 -45 200 -60 117 -20 131 -20
272 6 83 15 224 81 316 148 29 21 55 38 58 38 8 0 105 70 140 100 17 14 41 32
55 38 14 7 45 31 69 52 25 22 52 40 60 40 9 0 26 -16 39 -35z m-3792 -1544
c36 -28 74 -96 74 -133 0 -49 -18 -75 -132 -194 -188 -197 -217 -222 -265
-230 -107 -16 -185 53 -185 165 0 59 11 81 78 151 126 131 184 195 184 203 0
4 21 21 48 38 42 27 54 30 108 27 44 -3 68 -10 90 -27z m530 -256 c53 -54 70
-104 55 -162 -9 -34 -40 -72 -154 -189 -78 -81 -157 -161 -176 -178 -19 -17
-50 -48 -70 -70 -41 -44 -128 -86 -176 -86 -40 0 -114 30 -137 56 -25 29 -40
99 -30 137 6 20 45 69 103 129 52 54 123 129 159 169 170 186 217 225 290 238
59 11 91 1 136 -44z m372 -304 c37 -11 49 -22 80 -72 29 -48 30 -126 2 -159
-11 -13 -20 -27 -20 -31 0 -11 -406 -418 -456 -457 -54 -42 -111 -44 -166 -6
-75 53 -98 138 -59 221 21 41 142 172 180 192 11 7 21 16 21 20 0 18 267 278
296 289 37 13 81 14 122 3z m368 -377 c19 -9 55 -39 79 -66 40 -45 45 -55 45
-98 0 -62 -21 -92 -163 -233 -206 -203 -256 -247 -287 -254 -17 -3 -33 -10
-36 -14 -9 -15 -56 -10 -105 12 -86 39 -127 159 -76 225 12 16 51 59 87 95 36
36 99 101 141 145 109 113 152 151 201 179 51 29 68 31 114 9z m365 -310 c27
-20 49 -39 49 -43 0 -4 10 -13 23 -19 12 -7 49 -34 82 -62 33 -27 86 -68 117
-90 71 -50 81 -69 76 -135 -7 -78 -53 -126 -143 -151 -76 -20 -135 5 -243 107
-38 35 -81 73 -96 84 -15 11 -41 32 -59 48 -17 15 -35 27 -39 27 -21 0 -2 32
61 104 47 53 73 93 81 122 8 27 18 44 27 44 9 0 37 -16 64 -36z"/>
<path d="M7139 10905 c-19 -14 -37 -34 -41 -43 -9 -23 -10 -664 0 -677 4 -6
20 -21 36 -33 l29 -22 1532 0 1532 0 36 28 c22 16 39 39 42 57 3 17 5 171 3
343 l-3 313 -35 29 -35 29 -1531 1 -1530 0 -35 -25z m2971 -380 l0 -195 -1405
0 -1405 0 0 195 0 195 1405 0 1405 0 0 -195z"/>
<path d="M6868 9683 c-49 -30 -53 -109 -9 -154 l30 -29 1836 2 1837 3 19 24
c13 16 19 39 19 76 0 46 -4 57 -26 74 l-27 21 -1826 0 c-1686 -1 -1828 -2
-1853 -17z"/>
<path d="M7430 9084 c-21 -6 -50 -60 -50 -93 0 -51 26 -88 68 -96 20 -4 731
-4 1580 0 l1543 8 14 21 c27 42 22 110 -10 141 l-24 25 -1553 -1 c-854 -1
-1560 -3 -1568 -5z"/>
<path d="M8030 8474 c-45 -19 -50 -29 -50 -91 0 -46 3 -54 29 -72 29 -21 31
-21 1285 -21 l1257 0 23 23 c47 45 42 125 -9 157 -32 20 -47 20 -1266 20
-1076 -1 -1238 -3 -1269 -16z"/>
<path d="M6355 8179 c-49 -4 -112 -12 -140 -18 -27 -7 -78 -17 -112 -23 -35
-5 -63 -14 -63 -18 0 -5 -19 -11 -42 -15 -52 -9 -188 -63 -188 -76 0 -5 -6 -9
-13 -9 -21 0 -146 -68 -202 -110 -27 -21 -55 -39 -62 -41 -28 -9 -194 -167
-341 -324 -21 -22 -51 -62 -66 -90 -16 -27 -35 -53 -41 -57 -17 -10 -131 -235
-139 -275 -11 -50 26 -118 76 -138 46 -18 73 -19 119 -4 50 17 63 32 109 122
36 71 85 149 148 236 73 101 213 235 322 307 36 23 77 52 92 64 15 11 48 28
73 36 25 9 47 20 51 25 3 5 13 9 22 9 10 0 36 9 57 21 111 59 333 93 540 84
77 -3 160 -10 185 -15 102 -20 177 -42 211 -60 20 -11 43 -20 50 -20 8 0 35
-11 61 -25 26 -14 51 -25 56 -25 8 0 134 -78 157 -98 6 -4 18 -13 27 -18 25
-14 116 -94 159 -139 86 -91 143 -164 134 -173 -4 -4 -10 -1 -12 6 -3 6 -13
12 -24 12 -11 0 -45 9 -77 21 -139 51 -232 59 -232 21 0 -21 -29 -150 -40
-178 -13 -32 18 -59 82 -74 29 -6 62 -16 73 -21 11 -5 49 -15 85 -23 126 -28
161 -38 220 -64 30 -14 159 -42 217 -49 57 -7 84 22 100 109 17 97 53 241 64
261 5 10 12 53 16 97 6 77 5 80 -28 132 -18 29 -36 55 -39 58 -3 3 -18 32 -35
65 -31 64 -41 75 -67 75 -28 0 -46 -27 -53 -80 -4 -27 -11 -52 -16 -56 -5 -3
-9 -15 -9 -27 0 -47 -41 -60 -55 -17 -11 35 -258 271 -313 299 -15 7 -45 28
-67 45 -40 32 -163 96 -184 96 -6 0 -11 4 -11 9 0 5 -15 14 -32 21 -18 6 -46
18 -63 26 -16 7 -55 19 -85 25 -30 6 -59 15 -65 19 -5 4 -37 13 -70 19 -33 6
-80 16 -105 22 -100 24 -255 31 -415 18z"/>
<path d="M2663 8073 c-14 -16 -29 -38 -34 -51 -5 -13 -9 -404 -9 -880 l0 -857
24 -45 c17 -32 32 -47 55 -52 17 -5 312 -7 656 -6 l625 3 24 30 c14 17 27 43
30 59 8 39 6 1716 -2 1743 -4 12 -19 35 -35 52 l-27 31 -641 0 -640 0 -26 -27z
m1180 -185 c-2 -5 -3 -348 -3 -763 l0 -755 -511 0 -510 0 3 598 c2 328 4 672
6 765 l3 167 507 -2 c279 -2 506 -6 505 -10z"/>
<path d="M8486 7833 c-35 -9 -55 -45 -56 -98 0 -56 5 -67 37 -84 31 -16 2061
-16 2098 1 14 6 28 23 31 37 3 14 7 31 9 38 2 6 -1 27 -6 47 -20 71 58 66
-1074 65 -561 -1 -1029 -4 -1039 -6z"/>
<path d="M6402 7608 c-7 -7 -12 -43 -12 -94 l0 -81 -42 -7 c-116 -19 -302
-105 -373 -172 -24 -24 -61 -76 -82 -116 l-38 -73 0 -130 c0 -129 0 -130 34
-194 36 -65 69 -105 110 -131 13 -8 33 -22 45 -31 22 -17 150 -79 163 -79 4 0
47 -12 95 -27 l88 -28 0 -287 0 -287 -43 13 c-24 7 -68 29 -98 48 -44 28 -62
48 -86 95 -16 32 -36 82 -42 110 -20 81 -27 84 -182 81 l-134 -3 -3 -40 c-6
-63 18 -175 51 -240 48 -96 180 -214 266 -237 20 -6 38 -14 41 -18 6 -9 146
-50 198 -57 l32 -5 0 -68 c0 -51 4 -71 18 -83 23 -20 100 -31 135 -18 26 10
27 12 27 91 l0 80 31 0 c18 0 50 5 73 11 99 26 152 42 161 49 6 5 28 13 50 19
61 16 215 157 215 196 0 7 8 23 18 36 38 49 54 230 31 341 -6 29 -34 91 -61
138 -40 68 -62 94 -113 133 -36 26 -72 50 -82 54 -10 4 -20 9 -23 13 -3 4 -57
23 -120 44 -63 21 -128 42 -143 48 l-28 11 2 228 c1 179 4 229 14 233 23 8
112 -43 150 -87 34 -38 50 -66 83 -150 l12 -28 147 3 148 3 3 28 c7 59 -73
235 -137 304 -45 49 -49 52 -122 92 -24 13 -46 27 -49 31 -5 9 -126 38 -200
48 l-45 7 -3 90 c-2 56 -7 92 -15 97 -20 13 -152 9 -165 -4z m-2 -640 l0 -210
-36 7 c-45 8 -132 56 -163 89 -29 31 -44 98 -36 158 7 45 24 71 85 125 25 22
128 55 143 46 4 -2 7 -99 7 -215z m272 -599 c24 -6 60 -31 97 -67 55 -53 60
-61 66 -114 14 -115 -19 -208 -92 -254 -51 -32 -107 -54 -140 -54 l-23 0 0
256 0 256 28 -6 c15 -4 44 -12 64 -17z"/>
<path d="M9466 7203 c-865 -3 -870 -3 -892 -24 -44 -41 -38 -131 11 -163 22
-14 131 -16 993 -16 l968 0 29 30 c23 24 28 39 28 75 0 38 -5 51 -29 73 -34
32 87 29 -1108 25z"/>
<path d="M9020 6532 l-415 -2 -29 -24 c-26 -20 -30 -30 -30 -74 0 -58 20 -88
66 -100 15 -4 457 -5 981 -2 l952 5 26 25 c53 50 44 136 -16 164 -37 18 -46
18 -1535 8z"/>
</g>
</svg>
